<mxfile host="app.diagrams.net" modified="2020-04-14T19:50:10.490Z" agent="5.0 (X11; Linux x86_64) AppleWebKit/537.36 (KHTML, like Gecko) Chrome/81.0.4044.92 Safari/537.36" etag="X0oyCoq-LZ4egZj3iGwY" version="12.9.12" type="github">
  <diagram id="-OBd6vNJXbK18NpUTdxf" name="Page-1">
    <mxGraphModel dx="1873" dy="911" grid="1" gridSize="10" guides="1" tooltips="1" connect="1" arrows="1" fold="1" page="1" pageScale="1" pageWidth="850" pageHeight="1100" math="0" shadow="0">
      <root>
        <mxCell id="0" />
        <mxCell id="1" parent="0" />
        <mxCell id="hPBj0JyTopRc1FPNhInp-5" value="Follows &lt;br&gt;Repositories" style="shape=rhombus;perimeter=rhombusPerimeter;whiteSpace=wrap;html=1;align=center;" parent="1" vertex="1">
          <mxGeometry x="357.66" y="186" width="120" height="60" as="geometry" />
        </mxCell>
        <mxCell id="hPBj0JyTopRc1FPNhInp-9" value="Follows User" style="shape=rhombus;perimeter=rhombusPerimeter;whiteSpace=wrap;html=1;align=center;" parent="1" vertex="1">
          <mxGeometry x="310" y="246" width="120" height="60" as="geometry" />
        </mxCell>
        <mxCell id="hPBj0JyTopRc1FPNhInp-10" value="" style="line;strokeWidth=1;fillColor=none;align=left;verticalAlign=middle;spacingTop=-1;spacingLeft=3;spacingRight=3;rotatable=0;labelPosition=right;points=[];portConstraint=eastwest;fontSize=12;" parent="1" vertex="1">
          <mxGeometry x="240" y="252" width="110" height="8" as="geometry" />
        </mxCell>
        <mxCell id="hPBj0JyTopRc1FPNhInp-11" value="" style="line;strokeWidth=1;fillColor=none;align=left;verticalAlign=middle;spacingTop=-1;spacingLeft=3;spacingRight=3;rotatable=0;labelPosition=right;points=[];portConstraint=eastwest;fontSize=12;" parent="1" vertex="1">
          <mxGeometry x="240" y="292" width="110" height="8" as="geometry" />
        </mxCell>
        <mxCell id="hPBj0JyTopRc1FPNhInp-58" value="Reaction" style="shape=rhombus;perimeter=rhombusPerimeter;whiteSpace=wrap;html=1;align=center;" parent="1" vertex="1">
          <mxGeometry x="280" y="730" width="120" height="60" as="geometry" />
        </mxCell>
        <mxCell id="hPBj0JyTopRc1FPNhInp-73" value="follower" style="text;html=1;align=center;verticalAlign=middle;resizable=0;points=[];autosize=1;" parent="1" vertex="1">
          <mxGeometry x="255" y="240" width="60" height="20" as="geometry" />
        </mxCell>
        <mxCell id="hPBj0JyTopRc1FPNhInp-74" value="followee" style="text;html=1;align=center;verticalAlign=middle;resizable=0;points=[];autosize=1;" parent="1" vertex="1">
          <mxGeometry x="255" y="280" width="60" height="20" as="geometry" />
        </mxCell>
        <mxCell id="hPBj0JyTopRc1FPNhInp-83" value="" style="endArrow=none;html=1;rounded=0;entryX=0.5;entryY=1;entryDx=0;entryDy=0;exitX=0.5;exitY=0;exitDx=0;exitDy=0;" parent="1" source="hPBj0JyTopRc1FPNhInp-54" target="hPBj0JyTopRc1FPNhInp-58" edge="1">
          <mxGeometry relative="1" as="geometry">
            <mxPoint x="280" y="825" as="sourcePoint" />
            <mxPoint x="270" y="780" as="targetPoint" />
          </mxGeometry>
        </mxCell>
        <mxCell id="hPBj0JyTopRc1FPNhInp-24" value="Post" style="swimlane;fontStyle=0;childLayout=stackLayout;horizontal=1;startSize=26;fillColor=#e0e0e0;horizontalStack=0;resizeParent=1;resizeParentMax=0;resizeLast=0;collapsible=1;marginBottom=0;swimlaneFillColor=#ffffff;align=center;fontSize=14;" parent="1" vertex="1">
          <mxGeometry x="600" y="510" width="160" height="156" as="geometry" />
        </mxCell>
        <mxCell id="hPBj0JyTopRc1FPNhInp-25" value="ID" style="text;strokeColor=none;fillColor=none;spacingLeft=4;spacingRight=4;overflow=hidden;rotatable=0;points=[[0,0.5],[1,0.5]];portConstraint=eastwest;fontSize=12;fontStyle=4" parent="hPBj0JyTopRc1FPNhInp-24" vertex="1">
          <mxGeometry y="26" width="160" height="26" as="geometry" />
        </mxCell>
        <mxCell id="hPBj0JyTopRc1FPNhInp-97" value="title" style="text;strokeColor=none;fillColor=none;spacingLeft=4;spacingRight=4;overflow=hidden;rotatable=0;points=[[0,0.5],[1,0.5]];portConstraint=eastwest;fontSize=12;" parent="hPBj0JyTopRc1FPNhInp-24" vertex="1">
          <mxGeometry y="52" width="160" height="26" as="geometry" />
        </mxCell>
        <mxCell id="hPBj0JyTopRc1FPNhInp-110" value="username" style="text;strokeColor=none;fillColor=none;spacingLeft=4;spacingRight=4;overflow=hidden;rotatable=0;points=[[0,0.5],[1,0.5]];portConstraint=eastwest;fontSize=12;" parent="hPBj0JyTopRc1FPNhInp-24" vertex="1">
          <mxGeometry y="78" width="160" height="26" as="geometry" />
        </mxCell>
        <mxCell id="x5JO6SwM6epTy0tdOJWv-48" value="created_at" style="text;strokeColor=none;fillColor=none;spacingLeft=4;spacingRight=4;overflow=hidden;rotatable=0;points=[[0,0.5],[1,0.5]];portConstraint=eastwest;fontSize=12;" vertex="1" parent="hPBj0JyTopRc1FPNhInp-24">
          <mxGeometry y="104" width="160" height="26" as="geometry" />
        </mxCell>
        <mxCell id="x5JO6SwM6epTy0tdOJWv-49" value="updated_at" style="text;strokeColor=none;fillColor=none;spacingLeft=4;spacingRight=4;overflow=hidden;rotatable=0;points=[[0,0.5],[1,0.5]];portConstraint=eastwest;fontSize=12;" vertex="1" parent="hPBj0JyTopRc1FPNhInp-24">
          <mxGeometry y="130" width="160" height="26" as="geometry" />
        </mxCell>
        <mxCell id="hPBj0JyTopRc1FPNhInp-33" value="Comment" style="swimlane;fontStyle=0;childLayout=stackLayout;horizontal=1;startSize=26;fillColor=#e0e0e0;horizontalStack=0;resizeParent=1;resizeParentMax=0;resizeLast=0;collapsible=1;marginBottom=0;swimlaneFillColor=#ffffff;align=center;fontSize=14;" parent="1" vertex="1">
          <mxGeometry x="255" y="510" width="160" height="182" as="geometry" />
        </mxCell>
        <mxCell id="hPBj0JyTopRc1FPNhInp-34" value="ID" style="text;strokeColor=none;fillColor=none;spacingLeft=4;spacingRight=4;overflow=hidden;rotatable=0;points=[[0,0.5],[1,0.5]];portConstraint=eastwest;fontSize=12;fontStyle=4" parent="hPBj0JyTopRc1FPNhInp-33" vertex="1">
          <mxGeometry y="26" width="160" height="26" as="geometry" />
        </mxCell>
        <mxCell id="xwi763ucqA97qXMkoWyd-5" value="post_id" style="text;strokeColor=none;fillColor=none;spacingLeft=4;spacingRight=4;overflow=hidden;rotatable=0;points=[[0,0.5],[1,0.5]];portConstraint=eastwest;fontSize=12;" parent="hPBj0JyTopRc1FPNhInp-33" vertex="1">
          <mxGeometry y="52" width="160" height="26" as="geometry" />
        </mxCell>
        <mxCell id="hPBj0JyTopRc1FPNhInp-35" value="username" style="text;strokeColor=none;fillColor=none;spacingLeft=4;spacingRight=4;overflow=hidden;rotatable=0;points=[[0,0.5],[1,0.5]];portConstraint=eastwest;fontSize=12;" parent="hPBj0JyTopRc1FPNhInp-33" vertex="1">
          <mxGeometry y="78" width="160" height="26" as="geometry" />
        </mxCell>
        <mxCell id="hPBj0JyTopRc1FPNhInp-80" value="body" style="text;strokeColor=none;fillColor=none;spacingLeft=4;spacingRight=4;overflow=hidden;rotatable=0;points=[[0,0.5],[1,0.5]];portConstraint=eastwest;fontSize=12;" parent="hPBj0JyTopRc1FPNhInp-33" vertex="1">
          <mxGeometry y="104" width="160" height="26" as="geometry" />
        </mxCell>
        <mxCell id="hPBj0JyTopRc1FPNhInp-105" value="created_at" style="text;strokeColor=none;fillColor=none;spacingLeft=4;spacingRight=4;overflow=hidden;rotatable=0;points=[[0,0.5],[1,0.5]];portConstraint=eastwest;fontSize=12;" parent="hPBj0JyTopRc1FPNhInp-33" vertex="1">
          <mxGeometry y="130" width="160" height="26" as="geometry" />
        </mxCell>
        <mxCell id="hPBj0JyTopRc1FPNhInp-106" value="updated_at" style="text;strokeColor=none;fillColor=none;spacingLeft=4;spacingRight=4;overflow=hidden;rotatable=0;points=[[0,0.5],[1,0.5]];portConstraint=eastwest;fontSize=12;" parent="hPBj0JyTopRc1FPNhInp-33" vertex="1">
          <mxGeometry y="156" width="160" height="26" as="geometry" />
        </mxCell>
        <mxCell id="hPBj0JyTopRc1FPNhInp-17" value="Repository" style="swimlane;fontStyle=0;childLayout=stackLayout;horizontal=1;startSize=26;fillColor=#e0e0e0;horizontalStack=0;resizeParent=1;resizeParentMax=0;resizeLast=0;collapsible=1;marginBottom=0;swimlaneFillColor=#ffffff;align=center;fontSize=14;" parent="1" vertex="1">
          <mxGeometry x="600" y="140" width="160" height="182" as="geometry" />
        </mxCell>
        <mxCell id="hPBj0JyTopRc1FPNhInp-18" value="ID" style="text;strokeColor=none;fillColor=none;spacingLeft=4;spacingRight=4;overflow=hidden;rotatable=0;points=[[0,0.5],[1,0.5]];portConstraint=eastwest;fontSize=12;fontStyle=4" parent="hPBj0JyTopRc1FPNhInp-17" vertex="1">
          <mxGeometry y="26" width="160" height="26" as="geometry" />
        </mxCell>
        <mxCell id="hPBj0JyTopRc1FPNhInp-71" value="name" style="text;strokeColor=none;fillColor=none;spacingLeft=4;spacingRight=4;overflow=hidden;rotatable=0;points=[[0,0.5],[1,0.5]];portConstraint=eastwest;fontSize=12;" parent="hPBj0JyTopRc1FPNhInp-17" vertex="1">
          <mxGeometry y="52" width="160" height="26" as="geometry" />
        </mxCell>
        <mxCell id="hPBj0JyTopRc1FPNhInp-93" value="description" style="text;strokeColor=none;fillColor=none;spacingLeft=4;spacingRight=4;overflow=hidden;rotatable=0;points=[[0,0.5],[1,0.5]];portConstraint=eastwest;fontSize=12;" parent="hPBj0JyTopRc1FPNhInp-17" vertex="1">
          <mxGeometry y="78" width="160" height="26" as="geometry" />
        </mxCell>
        <mxCell id="hPBj0JyTopRc1FPNhInp-91" value="created_at" style="text;strokeColor=none;fillColor=none;spacingLeft=4;spacingRight=4;overflow=hidden;rotatable=0;points=[[0,0.5],[1,0.5]];portConstraint=eastwest;fontSize=12;" parent="hPBj0JyTopRc1FPNhInp-17" vertex="1">
          <mxGeometry y="104" width="160" height="26" as="geometry" />
        </mxCell>
        <mxCell id="hPBj0JyTopRc1FPNhInp-92" value="updated_at" style="text;strokeColor=none;fillColor=none;spacingLeft=4;spacingRight=4;overflow=hidden;rotatable=0;points=[[0,0.5],[1,0.5]];portConstraint=eastwest;fontSize=12;" parent="hPBj0JyTopRc1FPNhInp-17" vertex="1">
          <mxGeometry y="130" width="160" height="26" as="geometry" />
        </mxCell>
        <mxCell id="hPBj0JyTopRc1FPNhInp-115" value="username" style="text;strokeColor=none;fillColor=none;spacingLeft=4;spacingRight=4;overflow=hidden;rotatable=0;points=[[0,0.5],[1,0.5]];portConstraint=eastwest;fontSize=12;" parent="hPBj0JyTopRc1FPNhInp-17" vertex="1">
          <mxGeometry y="156" width="160" height="26" as="geometry" />
        </mxCell>
        <mxCell id="hPBj0JyTopRc1FPNhInp-1" value="User" style="swimlane;fontStyle=0;childLayout=stackLayout;horizontal=1;startSize=26;fillColor=#e0e0e0;horizontalStack=0;resizeParent=1;resizeParentMax=0;resizeLast=0;collapsible=1;marginBottom=0;swimlaneFillColor=#ffffff;align=center;fontSize=14;" parent="1" vertex="1">
          <mxGeometry x="80" y="146" width="160" height="182" as="geometry" />
        </mxCell>
        <mxCell id="hPBj0JyTopRc1FPNhInp-90" value="username" style="text;strokeColor=none;fillColor=none;spacingLeft=4;spacingRight=4;overflow=hidden;rotatable=0;points=[[0,0.5],[1,0.5]];portConstraint=eastwest;fontSize=12;fontStyle=4" parent="hPBj0JyTopRc1FPNhInp-1" vertex="1">
          <mxGeometry y="26" width="160" height="26" as="geometry" />
        </mxCell>
        <mxCell id="hPBj0JyTopRc1FPNhInp-70" value="name" style="text;strokeColor=none;fillColor=none;spacingLeft=4;spacingRight=4;overflow=hidden;rotatable=0;points=[[0,0.5],[1,0.5]];portConstraint=eastwest;fontSize=12;" parent="hPBj0JyTopRc1FPNhInp-1" vertex="1">
          <mxGeometry y="52" width="160" height="26" as="geometry" />
        </mxCell>
        <mxCell id="hPBj0JyTopRc1FPNhInp-3" value="avatar_url" style="text;strokeColor=none;fillColor=none;spacingLeft=4;spacingRight=4;overflow=hidden;rotatable=0;points=[[0,0.5],[1,0.5]];portConstraint=eastwest;fontSize=12;" parent="hPBj0JyTopRc1FPNhInp-1" vertex="1">
          <mxGeometry y="78" width="160" height="26" as="geometry" />
        </mxCell>
        <mxCell id="hPBj0JyTopRc1FPNhInp-4" value="email" style="text;strokeColor=none;fillColor=none;spacingLeft=4;spacingRight=4;overflow=hidden;rotatable=0;points=[[0,0.5],[1,0.5]];portConstraint=eastwest;fontSize=12;" parent="hPBj0JyTopRc1FPNhInp-1" vertex="1">
          <mxGeometry y="104" width="160" height="26" as="geometry" />
        </mxCell>
        <mxCell id="hPBj0JyTopRc1FPNhInp-114" value="last_login_time" style="text;strokeColor=none;fillColor=none;spacingLeft=4;spacingRight=4;overflow=hidden;rotatable=0;points=[[0,0.5],[1,0.5]];portConstraint=eastwest;fontSize=12;" parent="hPBj0JyTopRc1FPNhInp-1" vertex="1">
          <mxGeometry y="130" width="160" height="26" as="geometry" />
        </mxCell>
        <mxCell id="k9WcZGVzwI7hTksPtyKr-1" value="password" style="text;strokeColor=none;fillColor=none;spacingLeft=4;spacingRight=4;overflow=hidden;rotatable=0;points=[[0,0.5],[1,0.5]];portConstraint=eastwest;fontSize=12;" parent="hPBj0JyTopRc1FPNhInp-1" vertex="1">
          <mxGeometry y="156" width="160" height="26" as="geometry" />
        </mxCell>
        <mxCell id="hPBj0JyTopRc1FPNhInp-54" value="Emoji" style="swimlane;fontStyle=0;childLayout=stackLayout;horizontal=1;startSize=26;fillColor=#e0e0e0;horizontalStack=0;resizeParent=1;resizeParentMax=0;resizeLast=0;collapsible=1;marginBottom=0;swimlaneFillColor=#ffffff;align=center;fontSize=14;" parent="1" vertex="1">
          <mxGeometry x="260" y="830" width="160" height="52" as="geometry" />
        </mxCell>
        <mxCell id="hPBj0JyTopRc1FPNhInp-55" value="emoji" style="text;strokeColor=none;fillColor=none;spacingLeft=4;spacingRight=4;overflow=hidden;rotatable=0;points=[[0,0.5],[1,0.5]];portConstraint=eastwest;fontSize=12;fontStyle=4" parent="hPBj0JyTopRc1FPNhInp-54" vertex="1">
          <mxGeometry y="26" width="160" height="26" as="geometry" />
        </mxCell>
        <mxCell id="k9WcZGVzwI7hTksPtyKr-2" value="Has Reply" style="shape=rhombus;perimeter=rhombusPerimeter;whiteSpace=wrap;html=1;align=center;" parent="1" vertex="1">
          <mxGeometry x="70" y="532" width="120" height="60" as="geometry" />
        </mxCell>
        <mxCell id="k9WcZGVzwI7hTksPtyKr-5" value="" style="line;strokeWidth=1;fillColor=none;align=left;verticalAlign=middle;spacingTop=-1;spacingLeft=3;spacingRight=3;rotatable=0;labelPosition=right;points=[];portConstraint=eastwest;fontSize=12;" parent="1" vertex="1">
          <mxGeometry x="160" y="542" width="95" height="8" as="geometry" />
        </mxCell>
        <mxCell id="k9WcZGVzwI7hTksPtyKr-6" value="" style="line;strokeWidth=1;fillColor=none;align=left;verticalAlign=middle;spacingTop=-1;spacingLeft=3;spacingRight=3;rotatable=0;labelPosition=right;points=[];portConstraint=eastwest;fontSize=12;" parent="1" vertex="1">
          <mxGeometry x="145" y="580" width="110" height="8" as="geometry" />
        </mxCell>
        <mxCell id="k9WcZGVzwI7hTksPtyKr-7" value="comment_ID" style="text;html=1;align=center;verticalAlign=middle;resizable=0;points=[];autosize=1;" parent="1" vertex="1">
          <mxGeometry x="167.5" y="530" width="80" height="20" as="geometry" />
        </mxCell>
        <mxCell id="k9WcZGVzwI7hTksPtyKr-8" value="reply_ID" style="text;html=1;align=center;verticalAlign=middle;resizable=0;points=[];autosize=1;" parent="1" vertex="1">
          <mxGeometry x="177.5" y="568" width="60" height="20" as="geometry" />
        </mxCell>
        <mxCell id="x5JO6SwM6epTy0tdOJWv-3" value="" style="endArrow=none;html=1;exitX=1;exitY=0.759;exitDx=0;exitDy=0;exitPerimeter=0;entryX=0;entryY=0.5;entryDx=0;entryDy=0;" edge="1" parent="1" source="hPBj0JyTopRc1FPNhInp-70" target="hPBj0JyTopRc1FPNhInp-5">
          <mxGeometry width="50" height="50" relative="1" as="geometry">
            <mxPoint x="237.49999999999991" y="218.10399999999993" as="sourcePoint" />
            <mxPoint x="357.66" y="218" as="targetPoint" />
          </mxGeometry>
        </mxCell>
        <mxCell id="x5JO6SwM6epTy0tdOJWv-4" value="" style="endArrow=none;html=1;entryX=0.001;entryY=0.004;entryDx=0;entryDy=0;entryPerimeter=0;exitX=1;exitY=0.5;exitDx=0;exitDy=0;" edge="1" parent="1" source="hPBj0JyTopRc1FPNhInp-5">
          <mxGeometry width="50" height="50" relative="1" as="geometry">
            <mxPoint x="507.66" y="236" as="sourcePoint" />
            <mxPoint x="597.82" y="212.10400000000004" as="targetPoint" />
          </mxGeometry>
        </mxCell>
        <mxCell id="x5JO6SwM6epTy0tdOJWv-5" value="Has Post" style="shape=rhombus;double=1;perimeter=rhombusPerimeter;whiteSpace=wrap;html=1;align=center;" vertex="1" parent="1">
          <mxGeometry x="620" y="400" width="120" height="60" as="geometry" />
        </mxCell>
        <mxCell id="x5JO6SwM6epTy0tdOJWv-6" value="" style="endArrow=none;html=1;rounded=0;entryX=0.501;entryY=0.998;entryDx=0;entryDy=0;entryPerimeter=0;exitX=0.5;exitY=0;exitDx=0;exitDy=0;" edge="1" parent="1" source="x5JO6SwM6epTy0tdOJWv-5" target="hPBj0JyTopRc1FPNhInp-115">
          <mxGeometry relative="1" as="geometry">
            <mxPoint x="650" y="380" as="sourcePoint" />
            <mxPoint x="810" y="380" as="targetPoint" />
          </mxGeometry>
        </mxCell>
        <mxCell id="x5JO6SwM6epTy0tdOJWv-9" value="" style="endArrow=none;html=1;rounded=0;exitX=0.5;exitY=1;exitDx=0;exitDy=0;entryX=0.5;entryY=0;entryDx=0;entryDy=0;" edge="1" parent="1" source="x5JO6SwM6epTy0tdOJWv-5" target="hPBj0JyTopRc1FPNhInp-24">
          <mxGeometry relative="1" as="geometry">
            <mxPoint x="720" y="480" as="sourcePoint" />
            <mxPoint x="880" y="480" as="targetPoint" />
          </mxGeometry>
        </mxCell>
        <mxCell id="x5JO6SwM6epTy0tdOJWv-13" value="Has Body" style="shape=rhombus;double=1;perimeter=rhombusPerimeter;whiteSpace=wrap;html=1;align=center;" vertex="1" parent="1">
          <mxGeometry x="450" y="528" width="120" height="60" as="geometry" />
        </mxCell>
        <mxCell id="x5JO6SwM6epTy0tdOJWv-16" value="" style="endArrow=none;html=1;rounded=0;entryX=0;entryY=0.5;entryDx=0;entryDy=0;" edge="1" parent="1" target="x5JO6SwM6epTy0tdOJWv-13">
          <mxGeometry relative="1" as="geometry">
            <mxPoint x="415" y="557.88" as="sourcePoint" />
            <mxPoint x="445" y="557.88" as="targetPoint" />
          </mxGeometry>
        </mxCell>
        <mxCell id="x5JO6SwM6epTy0tdOJWv-19" value="" style="endArrow=none;html=1;rounded=0;" edge="1" parent="1">
          <mxGeometry relative="1" as="geometry">
            <mxPoint x="570" y="557.88" as="sourcePoint" />
            <mxPoint x="600" y="557.88" as="targetPoint" />
          </mxGeometry>
        </mxCell>
        <mxCell id="x5JO6SwM6epTy0tdOJWv-23" value="Creates Repository" style="shape=rhombus;double=1;perimeter=rhombusPerimeter;whiteSpace=wrap;html=1;align=center;" vertex="1" parent="1">
          <mxGeometry x="358" y="100" width="120" height="60" as="geometry" />
        </mxCell>
        <mxCell id="x5JO6SwM6epTy0tdOJWv-24" value="" style="endArrow=none;html=1;rounded=0;exitX=1.001;exitY=0;exitDx=0;exitDy=0;exitPerimeter=0;" edge="1" parent="1" source="hPBj0JyTopRc1FPNhInp-90">
          <mxGeometry relative="1" as="geometry">
            <mxPoint x="230" y="90" as="sourcePoint" />
            <mxPoint x="360" y="130" as="targetPoint" />
          </mxGeometry>
        </mxCell>
        <mxCell id="x5JO6SwM6epTy0tdOJWv-27" value="" style="endArrow=none;html=1;rounded=0;exitX=1;exitY=0.5;exitDx=0;exitDy=0;entryX=-0.004;entryY=-0.018;entryDx=0;entryDy=0;entryPerimeter=0;" edge="1" parent="1" source="x5JO6SwM6epTy0tdOJWv-23" target="hPBj0JyTopRc1FPNhInp-18">
          <mxGeometry relative="1" as="geometry">
            <mxPoint x="440" y="160" as="sourcePoint" />
            <mxPoint x="600" y="160" as="targetPoint" />
          </mxGeometry>
        </mxCell>
        <mxCell id="x5JO6SwM6epTy0tdOJWv-28" value="1..1" style="resizable=0;html=1;align=left;verticalAlign=bottom;" connectable="0" vertex="1" parent="x5JO6SwM6epTy0tdOJWv-27">
          <mxGeometry x="-1" relative="1" as="geometry">
            <mxPoint x="42" y="10" as="offset" />
          </mxGeometry>
        </mxCell>
        <mxCell id="x5JO6SwM6epTy0tdOJWv-31" value="0..N" style="text;html=1;align=center;verticalAlign=middle;resizable=0;points=[];autosize=1;" vertex="1" parent="1">
          <mxGeometry x="280" y="126" width="40" height="20" as="geometry" />
        </mxCell>
        <mxCell id="x5JO6SwM6epTy0tdOJWv-32" value="0..N" style="text;html=1;align=center;verticalAlign=middle;resizable=0;points=[];autosize=1;" vertex="1" parent="1">
          <mxGeometry x="290" y="190" width="40" height="20" as="geometry" />
        </mxCell>
        <mxCell id="x5JO6SwM6epTy0tdOJWv-33" value="1..N" style="text;html=1;align=center;verticalAlign=middle;resizable=0;points=[];autosize=1;" vertex="1" parent="1">
          <mxGeometry x="520" y="190" width="40" height="20" as="geometry" />
        </mxCell>
        <mxCell id="x5JO6SwM6epTy0tdOJWv-34" value="0..N" style="text;html=1;align=center;verticalAlign=middle;resizable=0;points=[];autosize=1;" vertex="1" parent="1">
          <mxGeometry x="680" y="360" width="40" height="20" as="geometry" />
        </mxCell>
        <mxCell id="x5JO6SwM6epTy0tdOJWv-35" value="1..1" style="text;html=1;align=center;verticalAlign=middle;resizable=0;points=[];autosize=1;" vertex="1" parent="1">
          <mxGeometry x="680" y="460" width="40" height="20" as="geometry" />
        </mxCell>
        <mxCell id="x5JO6SwM6epTy0tdOJWv-36" value="0..N" style="text;html=1;align=center;verticalAlign=middle;resizable=0;points=[];autosize=1;" vertex="1" parent="1">
          <mxGeometry x="310" y="232" width="40" height="20" as="geometry" />
        </mxCell>
        <mxCell id="x5JO6SwM6epTy0tdOJWv-39" value="0..N" style="text;html=1;align=center;verticalAlign=middle;resizable=0;points=[];autosize=1;" vertex="1" parent="1">
          <mxGeometry x="310" y="292" width="40" height="20" as="geometry" />
        </mxCell>
        <mxCell id="x5JO6SwM6epTy0tdOJWv-41" value="0..N" style="text;html=1;align=center;verticalAlign=middle;resizable=0;points=[];autosize=1;" vertex="1" parent="1">
          <mxGeometry x="560" y="530" width="40" height="20" as="geometry" />
        </mxCell>
        <mxCell id="x5JO6SwM6epTy0tdOJWv-42" value="1..1" style="text;html=1;align=center;verticalAlign=middle;resizable=0;points=[];autosize=1;" vertex="1" parent="1">
          <mxGeometry x="420" y="532" width="40" height="20" as="geometry" />
        </mxCell>
        <mxCell id="x5JO6SwM6epTy0tdOJWv-43" value="" style="endArrow=none;html=1;rounded=0;exitX=0.5;exitY=0;exitDx=0;exitDy=0;entryX=0.531;entryY=1;entryDx=0;entryDy=0;entryPerimeter=0;" edge="1" parent="1" source="hPBj0JyTopRc1FPNhInp-58" target="hPBj0JyTopRc1FPNhInp-106">
          <mxGeometry relative="1" as="geometry">
            <mxPoint x="320" y="710" as="sourcePoint" />
            <mxPoint x="480" y="710" as="targetPoint" />
          </mxGeometry>
        </mxCell>
        <mxCell id="x5JO6SwM6epTy0tdOJWv-44" value="0..N" style="text;html=1;align=center;verticalAlign=middle;resizable=0;points=[];autosize=1;" vertex="1" parent="1">
          <mxGeometry x="340" y="700" width="40" height="20" as="geometry" />
        </mxCell>
        <mxCell id="x5JO6SwM6epTy0tdOJWv-45" value="0..N" style="text;html=1;align=center;verticalAlign=middle;resizable=0;points=[];autosize=1;" vertex="1" parent="1">
          <mxGeometry x="350" y="809" width="40" height="20" as="geometry" />
        </mxCell>
        <mxCell id="x5JO6SwM6epTy0tdOJWv-46" value="0..N" style="text;html=1;align=center;verticalAlign=middle;resizable=0;points=[];autosize=1;" vertex="1" parent="1">
          <mxGeometry x="180" y="512" width="40" height="20" as="geometry" />
        </mxCell>
        <mxCell id="x5JO6SwM6epTy0tdOJWv-47" value="0..N" style="text;html=1;align=center;verticalAlign=middle;resizable=0;points=[];autosize=1;" vertex="1" parent="1">
          <mxGeometry x="180" y="594" width="40" height="20" as="geometry" />
        </mxCell>
      </root>
    </mxGraphModel>
  </diagram>
</mxfile>
